<svg width="32" height="32" viewBox="0 0 32 32" fill="none" xmlns="http://www.w3.org/2000/svg">
<path d="M13.3732 11.9599C13.1836 11.7832 12.9329 11.6871 12.6739 11.6916C12.4148 11.6962 12.1676 11.8012 11.9844 11.9844C11.8012 12.1676 11.6962 12.4148 11.6916 12.6739C11.6871 12.9329 11.7832 13.1836 11.9599 13.3732L14.5865 15.9999L11.9599 18.6265C11.8616 18.7181 11.7828 18.8285 11.7282 18.9512C11.6735 19.0738 11.6441 19.2062 11.6418 19.3405C11.6394 19.4748 11.6641 19.6082 11.7144 19.7327C11.7647 19.8572 11.8395 19.9703 11.9345 20.0653C12.0295 20.1602 12.1426 20.2351 12.2671 20.2854C12.3916 20.3357 12.525 20.3604 12.6592 20.358C12.7935 20.3556 12.9259 20.3262 13.0486 20.2716C13.1713 20.2169 13.2817 20.1381 13.3732 20.0399L15.9999 17.4132L18.6265 20.0399C18.8161 20.2165 19.0668 20.3127 19.3259 20.3081C19.585 20.3035 19.8322 20.1986 20.0154 20.0154C20.1986 19.8322 20.3035 19.585 20.3081 19.3259C20.3127 19.0668 20.2165 18.8161 20.0399 18.6265L17.4132 15.9999L20.0399 13.3732C20.1381 13.2817 20.2169 13.1713 20.2716 13.0486C20.3262 12.9259 20.3556 12.7935 20.358 12.6592C20.3604 12.525 20.3357 12.3916 20.2854 12.2671C20.2351 12.1426 20.1602 12.0295 20.0653 11.9345C19.9703 11.8395 19.8572 11.7647 19.7327 11.7144C19.6082 11.6641 19.4748 11.6394 19.3405 11.6418C19.2062 11.6441 19.0738 11.6735 18.9512 11.7282C18.8285 11.7828 18.7181 11.8616 18.6265 11.9599L15.9999 14.5865L13.3732 11.9599Z" fill="#9C9C9C"/>
<path fill-rule="evenodd" clip-rule="evenodd" d="M16.0001 1.6665C8.08408 1.6665 1.66675 8.08384 1.66675 15.9998C1.66675 23.9158 8.08408 30.3332 16.0001 30.3332C23.9161 30.3332 30.3334 23.9158 30.3334 15.9998C30.3334 8.08384 23.9161 1.6665 16.0001 1.6665ZM3.66675 15.9998C3.66675 12.7288 4.96615 9.5918 7.2791 7.27885C9.59205 4.9659 12.7291 3.6665 16.0001 3.6665C19.2711 3.6665 22.4081 4.9659 24.7211 7.27885C27.034 9.5918 28.3334 12.7288 28.3334 15.9998C28.3334 19.2708 27.034 22.4079 24.7211 24.7208C22.4081 27.0338 19.2711 28.3332 16.0001 28.3332C12.7291 28.3332 9.59205 27.0338 7.2791 24.7208C4.96615 22.4079 3.66675 19.2708 3.66675 15.9998Z" fill="#9C9C9C"/>
</svg>
