<svg width="24" height="24" viewBox="0 0 24 24" fill="none" xmlns="http://www.w3.org/2000/svg">
<path fill-rule="evenodd" clip-rule="evenodd" d="M15.4929 6.93479C15.6427 7.06556 15.7344 7.25048 15.7479 7.44888C15.7614 7.64728 15.6956 7.84292 15.5649 7.99279L7.70788 16.9928C7.63749 17.0734 7.55064 17.1381 7.45319 17.1824C7.35573 17.2266 7.24993 17.2496 7.14288 17.2496C7.03584 17.2496 6.93003 17.2266 6.83258 17.1824C6.73512 17.1381 6.64828 17.0734 6.57788 16.9928L3.43488 13.3928C3.30881 13.2423 3.24676 13.0484 3.26205 12.8527C3.27734 12.657 3.36875 12.4751 3.51667 12.346C3.66458 12.2169 3.85721 12.151 4.05319 12.1624C4.24917 12.1737 4.43288 12.2615 4.56488 12.4068L7.14288 15.3598L14.4349 7.00679C14.5657 6.85698 14.7506 6.76523 14.949 6.75173C15.1474 6.73823 15.343 6.80408 15.4929 6.93479ZM20.5179 7.01979C20.8179 7.30479 20.8289 7.77979 20.5429 8.07979L11.9719 17.0798C11.897 17.1584 11.806 17.2198 11.7051 17.2598C11.6041 17.2998 11.4957 17.3175 11.3873 17.3115C11.2789 17.3055 11.1731 17.276 11.0772 17.2251C10.9813 17.1743 10.8976 17.1032 10.8319 17.0168L10.4029 16.4538C10.2905 16.3073 10.2361 16.1245 10.2501 15.9404C10.2641 15.7563 10.3456 15.5838 10.4788 15.456C10.6121 15.3282 10.7878 15.2541 10.9723 15.2477C11.1568 15.2414 11.3372 15.3034 11.4789 15.4218L19.4569 7.04479C19.594 6.90083 19.7827 6.81723 19.9815 6.81236C20.1803 6.80748 20.3728 6.88173 20.5169 7.01879" fill="#FCFCFC"/>
</svg>
