<svg width="32" height="32" viewBox="0 0 32 32" fill="none" xmlns="http://www.w3.org/2000/svg">
<path d="M21.3735 13.3732C21.4717 13.2817 21.5505 13.1713 21.6052 13.0486C21.6598 12.9259 21.6892 12.7935 21.6916 12.6592C21.6939 12.525 21.6692 12.3916 21.619 12.2671C21.5687 12.1426 21.4938 12.0295 21.3988 11.9345C21.3039 11.8395 21.1908 11.7647 21.0663 11.7144C20.9417 11.6641 20.8084 11.6394 20.6741 11.6418C20.5398 11.6441 20.4074 11.6735 20.2847 11.7282C20.1621 11.7828 20.0517 11.8616 19.9601 11.9599L14.0001 17.9199L12.0401 15.9599C11.8506 15.7832 11.5998 15.6871 11.3408 15.6916C11.0817 15.6962 10.8345 15.8012 10.6513 15.9844C10.4681 16.1676 10.3631 16.4148 10.3586 16.6739C10.354 16.9329 10.4501 17.1836 10.6268 17.3732L13.2935 20.0399C13.481 20.2271 13.7351 20.3323 14.0001 20.3323C14.2651 20.3323 14.5193 20.2271 14.7068 20.0399L21.3735 13.3732Z" fill="#00CA18"/>
<path fill-rule="evenodd" clip-rule="evenodd" d="M16.0001 1.6665C8.08408 1.6665 1.66675 8.08384 1.66675 15.9998C1.66675 23.9158 8.08408 30.3332 16.0001 30.3332C23.9161 30.3332 30.3334 23.9158 30.3334 15.9998C30.3334 8.08384 23.9161 1.6665 16.0001 1.6665ZM3.66675 15.9998C3.66675 12.7288 4.96615 9.5918 7.2791 7.27885C9.59205 4.9659 12.7291 3.6665 16.0001 3.6665C19.2711 3.6665 22.4081 4.9659 24.7211 7.27885C27.034 9.5918 28.3334 12.7288 28.3334 15.9998C28.3334 19.2708 27.034 22.4079 24.7211 24.7208C22.4081 27.0338 19.2711 28.3332 16.0001 28.3332C12.7291 28.3332 9.59205 27.0338 7.2791 24.7208C4.96615 22.4079 3.66675 19.2708 3.66675 15.9998Z" fill="#00CA18"/>
</svg>
